<svg xmlns="http://www.w3.org/2000/svg" xmlns:xlink="http://www.w3.org/1999/xlink" version="1.1" width="256" height="256" viewBox="0 0 256 256" xml:space="preserve">
    <defs></defs>
    <g style="stroke: none; stroke-width: 0; stroke-dasharray: none; stroke-linecap: butt; stroke-linejoin: miter; stroke-miterlimit: 10; fill: none; fill-rule: nonzero; opacity: 1;" transform="translate(1.4065934065934016 1.4065934065934016) scale(2.81 2.81)">
        <path d="M 53.37 55.015 L 22.645 24.291 c -0.769 -0.769 -0.769 -2.015 0 -2.784 l 8.591 -8.591 c 0.769 -0.769 2.015 -0.769 2.784 0 l 30.724 30.724 c 0.769 0.769 0.769 2.015 0 2.784 l -8.591 8.591 C 55.384 55.784 54.138 55.784 53.37 55.015 z" style="stroke: none; stroke-width: 1; stroke-dasharray: none; stroke-linecap: butt; stroke-linejoin: miter; stroke-miterlimit: 10; fill: rgb(255,255,255); fill-rule: nonzero; opacity: 1;" transform=" matrix(1 0 0 1 0 0)" stroke-linecap="round"/>
        <path d="M 53.37 34.985 L 22.645 65.709 c -0.769 0.769 -0.769 2.015 0 2.784 l 8.591 8.591 c 0.769 0.769 2.015 0.769 2.784 0 l 30.724 -30.724 c 0.769 -0.769 0.769 -2.015 0 -2.784 l -8.591 -8.591 C 55.384 34.216 54.138 34.216 53.37 34.985 z" style="stroke: none; stroke-width: 1; stroke-dasharray: none; stroke-linecap: butt; stroke-linejoin: miter; stroke-miterlimit: 10; fill: rgb(255,255,255); fill-rule: nonzero; opacity: 1;" transform=" matrix(1 0 0 1 0 0)" stroke-linecap="round"/>
        <path d="M 45.419 53.043 l -43.451 0 C 0.881 53.043 0 52.162 0 51.075 l 0 -12.149 c 0 -1.087 0.881 -1.968 1.968 -1.968 l 43.451 0 c 1.087 0 1.968 0.881 1.968 1.968 v 12.149 C 47.387 52.162 46.506 53.043 45.419 53.043 z" style="stroke: none; stroke-width: 1; stroke-dasharray: none; stroke-linecap: butt; stroke-linejoin: miter; stroke-miterlimit: 10; fill: rgb(255,255,255); fill-rule: nonzero; opacity: 1;" transform=" matrix(1 0 0 1 0 0)" stroke-linecap="round"/>
        <path d="M 90 14.651 l 0 60.699 c 0 1.276 -1.035 2.311 -2.311 2.311 H 76.225 c -1.276 0 -2.311 -1.035 -2.311 -2.311 l 0 -60.699 c 0 -1.276 1.035 -2.311 2.311 -2.311 l 11.464 0 C 88.965 12.34 90 13.374 90 14.651 z" style="stroke: none; stroke-width: 1; stroke-dasharray: none; stroke-linecap: butt; stroke-linejoin: miter; stroke-miterlimit: 10; fill: rgb(255,255,255); fill-rule: nonzero; opacity: 1;" transform=" matrix(1 0 0 1 0 0)" stroke-linecap="round"/>
    </g>
</svg>
